<svg width="708" height="588" viewBox="0 0 708 588" fill="none" xmlns="http://www.w3.org/2000/svg">
<g clip-path="url(#clip0_12_221)">
<path d="M622.804 562.986C625.714 563.167 627.321 559.558 625.119 557.455L624.9 556.586C624.928 556.517 624.957 556.448 624.986 556.378C626.722 552.245 631.501 550.289 635.651 552.001C648.77 557.414 634.919 569.854 635.96 578.272C636.325 581.177 647.727 581.337 647.082 584.188C653.146 570.957 656.334 556.51 656.329 541.982C656.328 538.332 656.126 534.682 655.716 531.041C655.378 528.063 654.913 525.103 654.312 522.171C651.058 506.318 644.021 491.221 633.873 478.613C628.996 475.954 631.97 471.795 629.512 466.811C628.629 465.013 620.754 464.973 620.426 463.002C620.779 463.048 625.869 457.772 624.188 455.163C623.081 453.446 623.426 451.26 624.847 449.793C624.986 449.649 625.118 449.497 625.239 449.334C629.437 443.648 635.225 444.638 638.249 452.362C644.704 455.611 644.768 461.002 640.81 466.189C638.292 469.489 637.947 473.953 635.738 477.486C635.965 477.777 636.202 478.058 636.429 478.349C640.602 483.686 644.211 489.424 647.254 495.451C646.392 488.751 647.658 480.679 649.82 475.475C652.298 469.502 656.96 464.479 661.044 459.313C665.921 453.143 675.848 455.943 676.71 463.755C676.719 463.83 676.727 463.904 676.735 463.98C676.131 464.32 675.539 464.681 674.961 465.063C671.667 467.24 672.808 472.337 676.713 472.937L676.801 472.95C676.584 475.12 668.868 481.957 668.323 484.073C673.541 504.187 669.637 506.843 653.581 507.18L652.738 508.378C654.26 512.744 655.484 517.215 656.404 521.743C657.269 525.947 657.871 530.196 658.209 534.463C658.63 539.847 658.595 545.259 658.142 550.634L658.169 550.444C659.323 544.523 662.541 538.993 667.216 535.159C674.18 529.446 684.021 527.339 691.534 522.746C695.151 520.535 699.787 523.389 699.158 527.575L699.127 527.776C698.008 528.23 696.917 528.757 695.862 529.347C695.257 529.688 694.665 530.05 694.086 530.432C690.792 532.609 691.934 537.708 695.84 538.305L695.928 538.318C695.992 538.327 696.047 538.336 696.11 538.346C694.192 542.895 675.919 549.313 672.572 552.955C669.318 570.524 670.917 570.001 655.937 564.89H655.928C654.292 572.01 651.902 578.966 648.83 585.595L623.448 585.604C623.357 585.322 623.275 585.032 623.193 584.75C625.54 584.895 627.905 584.758 630.216 584.33C628.332 582.024 626.448 579.701 624.564 577.395C624.519 577.35 624.482 577.304 624.446 577.259L624.417 577.223L621.804 568.638C622.01 566.733 622.347 564.845 622.803 562.986L622.804 562.985V562.986V562.986Z" fill="#F2F2F2"/>
<path d="M354.583 585.398L129.987 585.475C118.704 585.479 108.597 579.66 102.952 569.909C100.129 565.033 98.7177 559.684 98.7158 554.334C98.714 548.985 100.123 543.635 102.941 538.757L215.168 334.849C220.807 325.094 230.91 319.268 242.193 319.264C253.476 319.261 263.583 325.079 269.229 334.831L381.611 538.687C384.427 543.55 385.835 548.892 385.835 554.239C385.835 559.585 384.427 564.935 381.608 569.813C375.97 579.568 365.866 585.394 354.583 585.398H354.583H354.583ZM101.539 554.331C101.539 559.2 126.322 548.707 128.89 553.143C134.025 562.014 119.721 582.667 129.986 582.664C129.986 582.664 374.038 577.282 379.168 568.408C381.732 563.971 383.014 559.103 383.012 554.236C383.011 549.37 381.726 544.503 379.157 540.068L266.775 336.212C261.654 327.366 252.459 322.072 242.194 322.076C231.934 322.08 101.539 549.461 101.539 554.331H101.539V554.331Z" fill="#3F3D56"/>
<path d="M357.077 582.585C354.262 588.21 486.116 586.481 487.675 586.481C487.675 586.481 524.735 585.663 525.514 584.316C525.903 583.642 526.098 582.903 526.098 582.164C526.098 581.425 525.902 580.686 525.512 580.012L508.447 549.056C507.669 547.712 506.273 546.909 504.714 546.909C504.649 546.909 504.553 546.967 504.43 547.077C481.664 567.382 453.607 580.805 423.079 581.258C390.617 581.74 357.256 582.228 357.077 582.585H357.077V582.585Z" fill="#3F3D56"/>
<path d="M1.05428e-07 586.328C0.000324061 587.255 0.747127 588 1.67678 588L737.325 587.746C738.254 587.746 739 587 739 586.073C739 585.145 738.253 584.4 737.323 584.4L1.67563 584.654C0.745972 584.655 -0.000323851 585.4 1.05428e-07 586.328H1.05428e-07Z" fill="#CCCCCC"/>
<path d="M568.863 578.208L556.124 578.211L550.047 529.169L568.849 529.164L568.863 578.208Z" fill="#A0616A"/>
<path d="M525.216 577.935C524.82 578.601 524.611 580.754 524.611 581.529C524.612 583.912 526.549 585.844 528.937 585.843L568.39 585.829C570.019 585.829 571.339 584.51 571.338 582.884L571.338 581.245C571.338 581.245 573.288 576.317 569.267 570.245C569.267 570.245 564.275 575.002 556.81 567.557L554.608 563.579L538.683 575.212L529.854 576.299C527.922 576.537 526.209 576.264 525.216 577.935H525.216V577.935Z" fill="#2F2E41"/>
<path d="M520.016 536.262L507.948 540.337L486.454 495.821L504.264 489.806L520.016 536.262Z" fill="#A0616A"/>
<path d="M478.58 549.955C478.418 550.714 478.911 552.819 479.16 553.554C479.926 555.811 482.38 557.022 484.642 556.258L522.012 543.634C523.555 543.112 524.383 541.441 523.861 539.901L523.334 538.348C523.334 538.348 523.6 533.057 517.843 528.59C517.843 528.59 514.64 534.692 505.179 530.025L501.817 526.96L490.463 543.071L482.448 546.924C480.695 547.767 478.985 548.055 478.58 549.955L478.58 549.955V549.955Z" fill="#2F2E41"/>
<path d="M500.337 251.762L475.627 333.44L446.457 406.908L492.639 511.827L509.763 504.224L489.273 407.843L532.243 342.442L552.295 546.607L569.421 545.651L592.647 299.212L595.958 245.557L500.337 251.762Z" fill="#2F2E41"/>
<path d="M574.965 70.8307L538.812 77.4907L535.963 93.6355L514.082 104.089L502.706 222.798C502.706 222.798 483.685 247.495 498.911 255.087L595.958 245.557C595.958 245.557 600.709 227.998 595.952 226.332C591.194 224.666 591.179 182.725 591.179 182.725L613.033 96.4578L580.679 85.0734L574.965 70.8307Z" fill="#E6E6E6"/>
<path d="M553.641 70.5192C569.765 70.5192 582.836 57.4734 582.836 41.3806C582.836 25.2878 569.765 12.242 553.641 12.242C537.517 12.242 524.446 25.2878 524.446 41.3806C524.446 57.4734 537.517 70.5192 553.641 70.5192Z" fill="#A0616A"/>
<path d="M572.974 45.7053C570.644 46.9783 572.855 53.0557 571.399 53.5812C569.715 54.1885 563.579 47.217 563.503 39.4084C563.48 37.045 564.025 35.9102 563.501 33.1081C562.815 29.4428 560.711 25.1197 558.764 25.2345C557.609 25.3025 556.482 26.9316 556.398 28.3854C556.28 30.423 558.263 31.2249 557.977 32.3225C557.433 34.4131 549.106 35.8564 546.141 32.3266C543.817 29.5593 545.6 24.7006 544.561 24.4518C543.795 24.2685 542.972 26.9435 539.828 29.9662C538.644 31.105 536.882 32.7987 535.884 32.3301C534.442 31.653 535.489 26.881 535.093 26.8177C534.764 26.7653 534.558 30.1195 532.728 33.1188C530.376 36.9721 525.525 39.9421 523.261 38.6347C521.874 37.8338 521.765 35.6038 521.681 33.9101C521.506 30.342 516.311 22.1346 517.655 18.3176C520.39 10.5488 525.078 16.0251 527.198 13.4324C530.068 9.92263 532.643 11.8097 537.453 7.91619C542.153 4.11263 542.194 0.289736 545.341 0.0381559C548.175 -0.188401 549.183 2.82904 552.443 2.39829C555.205 2.03339 555.806 -0.306951 557.966 0.0337839C559.943 0.345728 560.074 2.40744 562.701 3.18227C564.379 3.67694 564.748 2.96096 566.647 3.18091C570.598 3.63857 573.253 7.23074 573.75 7.90363C575.666 10.4977 574.923 11.5916 576.908 14.2028C578.62 16.4546 582.414 15.4983 583.841 16.623C588.502 20.2979 590.505 27.075 590.545 34.7993C590.573 40.2019 589.867 42.9315 588.293 49.7507C587.097 54.9288 581.558 61.6203 578.504 64.6042C577.684 65.4051 575.386 67.6505 573.77 66.9684C572.239 66.322 572.193 63.4151 572.191 63.0313C572.184 61.7112 572.536 60.0779 575.344 55.9424C578.294 51.5984 579.466 51.1027 579.288 49.6408C578.971 47.0567 574.831 44.6907 572.974 45.7053H572.974V45.7053Z" fill="#2F2E41"/>
<path d="M471.137 317.37C470.228 324.965 473.417 331.59 478.26 332.167C483.102 332.744 487.765 327.055 488.673 319.46C489.071 316.136 488.683 312.997 487.716 310.47L491.162 278.24L475.973 276.948L474.188 308.858C472.652 311.086 471.535 314.046 471.137 317.37H471.137H471.137Z" fill="#A0616A"/>
<path d="M514.796 103.322C514.796 103.322 506.927 103.434 501.717 113.59C498.948 118.987 484.136 219.906 484.136 219.906L470.491 302.578L493.734 302.695L511.846 224.403L527.082 178.994L514.796 103.322L514.796 103.322Z" fill="#E6E6E6"/>
<path d="M580.205 305.239C577.979 312.558 579.958 319.638 584.624 321.051C589.291 322.465 594.878 317.678 597.104 310.358C598.078 307.154 598.247 303.997 597.737 301.34L606.778 270.208L592.051 266.284L584.701 297.391C582.797 299.317 581.179 302.035 580.205 305.239V305.239V305.239Z" fill="#A0616A"/>
<path d="M596.383 97.888C596.383 97.888 607.797 89.3373 617.317 102.629C626.836 115.921 630.68 225.128 630.68 225.128L604.062 292.561L584.079 285.92L603.08 203.295L569.756 140.631L596.383 97.888H596.383V97.888Z" fill="#E6E6E6"/>
<path d="M307.73 540.429C364.516 540.429 410.55 494.483 410.55 437.806C410.55 381.13 364.516 335.184 307.73 335.184C250.943 335.184 204.909 381.13 204.909 437.806C204.909 494.483 250.943 540.429 307.73 540.429Z" fill="white"/>
<path d="M307.748 500.715C312.962 500.715 317.189 496.497 317.189 491.293C317.189 486.089 312.962 481.87 307.748 481.87C302.534 481.87 298.307 486.089 298.307 491.293C298.307 496.497 302.534 500.715 307.748 500.715Z" fill="#2F2E41"/>
<path d="M307.708 374.897C306.841 380.649 308.394 381.852 308.403 406.647C308.412 431.442 313.566 464.686 307.739 464.688C301.911 464.69 299.78 396.082 279.545 390.01C255.754 382.87 310.515 356.279 307.708 374.897V374.897Z" fill="#2F2E41"/>
<path d="M169.729 490.201L160.44 509.791C171.67 501.754 189.211 494.825 203.17 491.114C190.164 484.844 174.249 474.734 164.741 464.725L170.084 485.424C107.443 472.69 62.4585 424.727 62.4395 369.785L60.1768 369.008C60.1966 426.396 104.558 477.199 169.729 490.201V490.201Z" fill="#3F3D56"/>
</g>
<defs>
<clipPath id="clip0_12_221">
<rect width="739" height="588" fill="white"/>
</clipPath>
</defs>
</svg>
